<svg width="1460" height="149" viewBox="0 0 1460 149" fill="none" xmlns="http://www.w3.org/2000/svg">
<path d="M0.000415266 109.6C9.92042 109.6 14.4004 107.04 14.4004 95.04V16.96C14.4004 4.96 9.92042 2.39999 0.000415266 2.39999V-7.62939e-06H87.6804V32.8H85.2804C85.2804 13.12 78.2404 3.83999 59.2004 3.83999H30.4004V53.92H56.9604C67.8404 53.92 71.5204 46.72 71.5204 33.6H73.9204V78.08H71.5204C71.5204 64.96 67.8404 57.76 56.9604 57.76H30.4004V108.16H62.0804C81.1204 108.16 88.1604 98.88 88.1604 79.2H90.5604V112H0.000415266V109.6ZM103.837 49.6C99.0367 38.24 95.9967 36 88.6367 36V33.6H128.157V36C118.237 36 114.557 38.08 119.517 49.6L137.757 92.16L155.837 49.6C160.637 38.24 155.037 36 145.117 36V33.6H177.917V36C169.757 36 164.477 39.68 160.317 49.6L133.277 113.28H130.877L103.837 49.6ZM209.313 114.56C186.273 114.56 169.633 99.2 169.633 72.8C169.633 49.12 186.913 31.04 209.793 31.04C228.993 31.04 242.433 44.32 242.433 61.6H185.793C185.473 64 185.313 66.4 185.313 68.48C185.313 91.2 197.633 103.36 215.073 103.36C224.353 103.36 233.633 100.16 239.873 89.44L241.793 90.4C235.873 104.32 226.593 114.56 209.313 114.56ZM186.593 57.76H220.673C225.793 57.76 228.033 54.24 228.033 50.56C228.033 43.04 222.113 34.88 209.793 34.88C196.353 34.88 189.313 46.4 186.593 57.76ZM241.04 109.6C250.96 109.6 255.44 107.04 255.44 95.04V52.96C255.44 43.52 253.84 40.64 241.04 40.64V38.72L270.48 31.04V54.08H271.28C276.24 38.72 288.24 31.04 302.64 31.04V46.08C282.32 42.88 270.48 50.72 270.48 67.36V95.04C270.48 107.04 274.96 109.6 284.88 109.6V112H241.04V109.6ZM300.213 132.64C325.173 136.16 333.493 126.08 339.573 112.64L312.693 49.6C307.893 38.24 304.853 36 297.493 36V33.6H337.013V36C327.093 36 323.573 38.24 328.373 49.6L347.413 94.08L366.133 49.6C370.933 38.24 366.133 36 356.213 36V33.6H388.213V36C380.053 36 375.413 38.24 370.613 49.6L345.013 110.24C334.613 134.88 323.573 148.16 300.213 148.16V132.64ZM514.142 109.6C524.062 109.6 528.542 107.04 528.542 95.04V62.4C528.542 49.12 525.822 40.64 513.822 40.64C505.662 40.64 497.982 44.16 492.222 50.08C492.702 52.96 493.022 56.16 493.022 59.36V95.04C493.022 107.04 497.502 109.6 507.422 109.6V112H463.582V109.6C473.502 109.6 477.982 107.04 477.982 95.04V62.4C477.982 49.12 475.262 40.64 463.262 40.64C456.222 40.64 447.902 44.48 442.462 50.72V95.04C442.462 107.04 446.942 109.6 456.862 109.6V112H413.022V109.6C422.942 109.6 427.422 107.04 427.422 95.04V52.96C427.422 43.52 425.822 40.64 413.022 40.64V38.72L442.462 31.04V46.72H443.262C450.462 37.12 459.582 31.04 469.822 31.04C482.622 31.04 488.862 37.92 491.582 47.04H492.062C500.062 37.28 510.142 31.04 520.382 31.04C536.062 31.04 543.582 41.28 543.582 59.04V95.04C543.582 107.04 548.062 109.6 557.982 109.6V112H514.142V109.6ZM594.735 114.56C571.855 114.56 555.695 99.2 555.695 72.8C555.695 49.12 572.655 31.04 594.735 31.04C617.615 31.04 633.775 46.24 633.775 72.8C633.775 96.8 616.815 114.56 594.735 114.56ZM571.535 68.64C571.535 88.96 577.775 110.72 596.335 110.72C613.135 110.72 617.935 93.44 617.935 77.28C617.935 58.4 612.175 34.88 593.135 34.88C578.255 34.88 571.535 50.24 571.535 68.64ZM735.098 109.6C745.018 109.6 749.498 107.04 749.498 95.04V62.4C749.498 49.12 746.778 40.64 734.778 40.64C726.618 40.64 718.938 44.16 713.178 50.08C713.658 52.96 713.978 56.16 713.978 59.36V95.04C713.978 107.04 718.458 109.6 728.378 109.6V112H684.538V109.6C694.458 109.6 698.938 107.04 698.938 95.04V62.4C698.938 49.12 696.218 40.64 684.218 40.64C677.178 40.64 668.858 44.48 663.418 50.72V95.04C663.418 107.04 667.898 109.6 677.818 109.6V112H633.978V109.6C643.898 109.6 648.378 107.04 648.378 95.04V52.96C648.378 43.52 646.778 40.64 633.978 40.64V38.72L663.418 31.04V46.72H664.218C671.418 37.12 680.538 31.04 690.778 31.04C703.578 31.04 709.818 37.92 712.538 47.04H713.018C721.018 37.28 731.098 31.04 741.338 31.04C757.018 31.04 764.538 41.28 764.538 59.04V95.04C764.538 107.04 769.018 109.6 778.938 109.6V112H735.098V109.6ZM816.332 114.56C793.292 114.56 776.652 99.2 776.652 72.8C776.652 49.12 793.932 31.04 816.812 31.04C836.012 31.04 849.452 44.32 849.452 61.6H792.812C792.492 64 792.332 66.4 792.332 68.48C792.332 91.2 804.652 103.36 822.092 103.36C831.372 103.36 840.652 100.16 846.892 89.44L848.812 90.4C842.892 104.32 833.612 114.56 816.332 114.56ZM793.612 57.76H827.692C832.812 57.76 835.052 54.24 835.052 50.56C835.052 43.04 829.132 34.88 816.812 34.88C803.372 34.88 796.332 46.4 793.612 57.76ZM848.059 109.6C857.979 109.6 862.459 107.04 862.459 95.04V52.96C862.459 43.52 860.859 40.64 848.059 40.64V38.72L877.499 31.04V46.72H878.299C885.179 36.96 894.619 31.04 904.859 31.04C920.699 31.04 931.259 42.08 931.259 61.92V95.04C931.259 107.04 935.739 109.6 945.659 109.6V112H901.819V109.6C911.739 109.6 916.219 107.04 916.219 95.04V62.4C916.219 48.8 911.579 40.64 898.299 40.64C891.259 40.64 882.939 44.48 877.499 50.72V95.04C877.499 107.04 881.979 109.6 891.899 109.6V112H848.059V109.6ZM968.509 114.56C958.429 114.56 951.069 108.32 951.069 94.4V40.64H940.669V38.72L964.669 17.44H966.109V33.6H985.469V40.64H966.109V94.24C966.109 101.44 968.829 105.6 975.389 105.6C979.549 105.6 983.869 103.04 986.109 98.56L988.029 99.52C984.829 108.48 977.949 114.56 968.509 114.56ZM1057.15 114.56C1035.87 114.56 1017.47 99.68 1017.47 72.8C1017.47 48 1034.27 31.04 1058.11 31.04C1072.51 31.04 1082.59 37.12 1089.47 44.8L1081.15 60.32H1079.55C1076.99 44.16 1070.11 34.88 1057.63 34.88C1040.67 34.88 1033.31 49.28 1033.31 67.52C1033.31 89.76 1045.31 103.36 1062.59 103.36C1072.83 103.36 1081.95 99.36 1087.87 89.44L1089.79 90.4C1084.83 103.2 1074.59 114.56 1057.15 114.56ZM1131.13 114.56C1108.25 114.56 1092.09 99.2 1092.09 72.8C1092.09 49.12 1109.05 31.04 1131.13 31.04C1154.01 31.04 1170.17 46.24 1170.17 72.8C1170.17 96.8 1153.21 114.56 1131.13 114.56ZM1107.93 68.64C1107.93 88.96 1114.17 110.72 1132.73 110.72C1149.53 110.72 1154.33 93.44 1154.33 77.28C1154.33 58.4 1148.57 34.88 1129.53 34.88C1114.65 34.88 1107.93 50.24 1107.93 68.64ZM1208.45 114.56C1192.93 114.56 1182.37 105.28 1182.37 84.96V50.56C1182.37 38.56 1177.89 36 1167.97 36V33.6H1197.41V83.2C1197.41 96.8 1202.05 104.96 1215.33 104.96C1222.37 104.96 1230.69 101.12 1236.13 94.88V50.56C1236.13 38.56 1231.65 36 1221.73 36V33.6H1251.17V92.64C1251.17 102.08 1252.77 104.96 1265.57 104.96V106.88L1236.13 114.56V98.72H1235.33C1228.77 108.32 1219.01 114.56 1208.45 114.56ZM1260.62 109.6C1270.54 109.6 1275.02 107.04 1275.02 95.04V52.96C1275.02 43.52 1273.42 40.64 1260.62 40.64V38.72L1290.06 31.04V46.72H1290.86C1297.74 36.96 1307.18 31.04 1317.42 31.04C1333.26 31.04 1343.82 42.08 1343.82 61.92V95.04C1343.82 107.04 1348.3 109.6 1358.22 109.6V112H1314.38V109.6C1324.3 109.6 1328.78 107.04 1328.78 95.04V62.4C1328.78 48.8 1324.14 40.64 1310.86 40.64C1303.82 40.64 1295.5 44.48 1290.06 50.72V95.04C1290.06 107.04 1294.54 109.6 1304.46 109.6V112H1260.62V109.6ZM1381.07 114.56C1370.99 114.56 1363.63 108.32 1363.63 94.4V40.64H1353.23V38.72L1377.23 17.44H1378.67V33.6H1398.03V40.64H1378.67V94.24C1378.67 101.44 1381.39 105.6 1387.95 105.6C1392.11 105.6 1396.43 103.04 1398.67 98.56L1400.59 99.52C1397.39 108.48 1390.51 114.56 1381.07 114.56ZM1431.15 114.56C1421.71 114.56 1407.31 111.84 1399.95 107.52V84.32H1401.87C1406.67 100 1419.15 110.72 1433.23 110.72C1442.51 110.72 1449.23 105.6 1449.23 97.6C1449.23 76.32 1400.75 85.92 1400.75 54.08C1400.75 39.68 1412.59 31.04 1429.07 31.04C1438.99 31.04 1448.91 33.6 1455.95 38.08V60.64H1454.03C1450.51 45.28 1440.75 34.88 1426.83 34.88C1417.55 34.88 1410.99 40.48 1410.99 48.32C1410.99 69.6 1459.31 61.6 1459.31 91.36C1459.31 107.04 1448.43 114.56 1431.15 114.56Z" fill="black"/>
</svg>
