<svg width="2480" height="500" viewBox="0 0 2480 500" fill="none" xmlns="http://www.w3.org/2000/svg">
<rect width="500" height="500" rx="76.9231" fill="black"/>
<path d="M231.218 390.625C160.901 390.625 105.766 341.901 105.766 270.202C105.766 181.47 178.48 109.375 268.774 109.375C339.891 109.375 394.227 158.495 394.227 229.401C394.227 318.53 321.912 390.625 231.218 390.625ZM236.812 337.148C289.95 337.148 333.099 289.613 333.099 232.967C333.099 188.996 304.333 162.456 263.181 162.456C210.443 162.456 167.293 209.991 167.293 267.033C167.293 310.607 196.06 337.148 236.812 337.148Z" fill="white"/>
<path d="M712.97 363.756C657.006 363.756 617.568 321.313 617.568 268.353C617.568 215.394 657.006 173.326 712.97 173.326C768.559 173.326 807.997 215.394 807.997 268.353C807.997 321.313 768.559 363.756 712.97 363.756ZM712.97 337.088C749.779 337.088 777.198 308.543 777.198 268.353C777.198 228.54 749.779 199.994 712.97 199.994C675.786 199.994 648.743 228.54 648.743 268.353C648.743 308.543 675.786 337.088 712.97 337.088ZM859.78 360H828.981V100.835H859.78V203.374C872.926 184.219 892.458 173.326 920.628 173.326C963.446 173.326 991.241 199.618 991.241 250.7V360H960.442V253.329C960.442 213.891 940.91 199.994 914.618 199.994C881.941 199.994 859.78 221.779 859.78 254.081V360ZM1130.29 91.8209L1030.38 360H998.075L1097.98 91.8209H1130.29ZM1350.04 173.326C1393.23 173.326 1420.65 202.999 1420.65 250.7V360H1389.85V253.329C1389.85 220.652 1372.58 199.994 1344.03 199.994C1315.86 199.994 1295.58 222.53 1295.58 254.081V360H1264.78V253.329C1264.78 221.403 1246.75 199.994 1218.95 199.994C1190.78 199.994 1170.5 222.906 1170.5 254.081V360H1139.7V177.082H1170.13V204.126C1182.15 184.219 1200.17 173.702 1224.96 173.326C1252.01 172.575 1275.29 186.848 1285.81 208.633C1298.96 185.721 1321.49 173.326 1350.04 173.326ZM1461.54 435.12C1447.27 435.12 1434.87 432.115 1425.86 427.233L1433.37 400.941C1440.51 405.448 1447.64 408.453 1460.41 408.453C1473.93 408.453 1484.83 401.316 1491.59 383.663L1496.47 370.892C1499.48 363.38 1500.23 356.995 1494.97 344.225L1425.48 177.082H1458.54L1513 313.05C1515.63 319.435 1516.38 322.064 1518.26 326.947L1523.51 313.05L1574.97 177.082H1607.65L1523.51 384.038C1508.11 421.599 1488.96 435.12 1461.54 435.12ZM1726.58 91.8209L1626.67 360H1594.37L1694.28 91.8209H1726.58ZM1813 363.756C1761.16 363.756 1723.23 323.191 1723.23 268.353C1723.23 213.516 1761.16 173.326 1813 173.326C1840.42 173.326 1863.7 185.346 1879.1 207.882V100.835H1909.9V360H1879.48V326.196C1864.08 350.234 1840.04 363.756 1813 363.756ZM1816.75 337.088C1852.44 337.088 1879.1 307.416 1879.1 268.353C1879.1 229.666 1852.44 199.994 1816.75 199.994C1781.07 199.994 1754.4 229.666 1754.4 268.353C1754.4 307.416 1781.07 337.088 1816.75 337.088ZM1990.01 363.756C1949.82 363.756 1927.66 344.225 1927.66 310.421C1927.66 279.997 1949.07 262.719 1994.52 256.334L2023.44 252.203C2044.47 249.198 2051.23 243.939 2051.23 231.169C2051.23 212.013 2034.71 199.618 2008.79 199.618C1987.76 199.618 1968.6 207.506 1952.83 222.906L1934.42 203.374C1953.58 183.468 1979.49 173.326 2011.04 173.326C2054.61 173.326 2080.53 195.862 2080.53 233.047V316.43C2080.53 335.586 2083.54 346.103 2093.3 360H2061.37C2054.61 350.986 2052.36 344.225 2051.61 330.703C2037.71 352.112 2015.93 363.756 1990.01 363.756ZM1994.14 337.84C2027.2 337.84 2051.23 315.303 2051.23 284.129V267.227C2045.6 271.358 2038.84 273.987 2027.95 275.49L1999.4 279.621C1970.86 283.753 1958.08 292.392 1958.08 309.294C1958.08 327.698 1970.48 337.84 1994.14 337.84ZM2116.73 435.12C2102.46 435.12 2090.06 432.115 2081.05 427.233L2088.56 400.941C2095.7 405.448 2102.83 408.453 2115.6 408.453C2129.12 408.453 2140.02 401.316 2146.78 383.663L2151.66 370.892C2154.66 363.38 2155.42 356.995 2150.16 344.225L2080.67 177.082H2113.72L2168.19 313.05C2170.82 319.435 2171.57 322.064 2173.44 326.947L2178.7 313.05L2230.16 177.082H2262.84L2178.7 384.038C2163.3 421.599 2144.15 435.12 2116.73 435.12ZM2331.9 363.756C2299.6 363.756 2275.94 353.615 2255.66 333.708L2274.06 313.05C2290.59 329.576 2308.24 337.84 2331.9 337.84C2360.07 337.84 2374.72 328.825 2374.72 311.547C2374.72 296.523 2367.59 291.641 2333.41 282.626L2326.27 280.748C2280.07 268.729 2261.29 254.456 2261.29 225.535C2261.29 193.233 2288.33 173.326 2331.15 173.326C2361.2 173.326 2382.23 182.716 2401.77 201.121L2383.36 221.779C2367.21 207.13 2352.19 198.867 2330.4 198.867C2305.99 198.867 2291.72 208.633 2291.72 225.159C2291.72 239.432 2301.48 245.442 2334.91 254.081L2342.05 255.959C2387.49 267.978 2405.15 281.499 2405.15 309.294C2405.15 342.347 2376.23 363.756 2331.9 363.756Z" fill="black"/>
</svg>
